<?xml version="1.0" encoding="UTF-8"?>
<svg id="Ebene_2" data-name="Ebene 2" xmlns="http://www.w3.org/2000/svg" viewBox="0 0 433.3 91.33">
  <defs>
    <style>
      .cls-1 {
        fill: #1f376a;
      }

      .cls-2 {
        fill: #f7db3b;
      }
    </style>
  </defs>
  <g id="Ebene_1-2" data-name="Ebene 1">
    <g id="Ebene_1-2" data-name="Ebene 1-2">
      <g>
        <g>
          <rect class="cls-1" x="13.37" y="13.37" width="64.58" height="64.58" transform="translate(-18.92 45.66) rotate(-45)"/>
          <path class="cls-2" d="M70.5,44.45c-.1,4.61-1.45,8.92-3.73,12.58-2.71,4.35-6.73,7.8-11.5,9.81-3.96,1.66-7.29,4.52-9.44,8.24l-.16.28-.16-.28c-2.15-3.72-5.48-6.58-9.44-8.24-4.78-2-8.79-5.46-11.5-9.81-2.28-3.67-3.64-7.97-3.73-12.58l5.69,3.28h0l2.56,1.48-1.37,2.37c1.95,4.57,5.59,8.24,10.13,10.23.02,0,.03,0,.05.02,2.41,1.05,5.11-.74,5.11-3.38v-24.64h-13.93v-.17c1.23-1.98,2.81-3.73,4.65-5.15h9.28V12.1c.88-.07,1.77-.11,2.66-.11s1.78.04,2.66.11v16.39h9.28c1.84,1.42,3.41,3.17,4.64,5.15v.18h-13.93v24.64c0,2.63,2.7,4.43,5.11,3.38.02,0,.03,0,.05-.02,4.54-1.99,8.18-5.66,10.13-10.22l-1.37-2.37,2.56-1.48,5.69-3.28v-.02Z"/>
        </g>
        <g>
          <path class="cls-1" d="M104.32,38.72v-21.01h7.65c2.34,0,4.15.43,5.41,1.29s1.89,2.07,1.89,3.63c0,1.13-.38,2.12-1.15,2.97s-1.75,1.44-2.94,1.77v.06c1.49.19,2.69.74,3.58,1.66s1.34,2.04,1.34,3.35c0,1.92-.69,3.45-2.07,4.58s-3.26,1.69-5.64,1.69h-8.07ZM109.05,21.2v4.98h2.08c.98,0,1.75-.24,2.31-.71s.84-1.13.84-1.96c0-1.54-1.15-2.31-3.46-2.31,0,0-1.77,0-1.77,0ZM109.05,29.69v5.54h2.56c1.09,0,1.95-.25,2.57-.76s.93-1.2.93-2.08-.31-1.5-.92-1.98-1.46-.72-2.56-.72h-2.59,0Z"/>
          <path class="cls-1" d="M142.15,38.72h-12.6v-21.01h12.11v3.85h-7.38v4.67h6.87v3.84h-6.87v4.8h7.87v3.84h0Z"/>
          <path class="cls-1" d="M150.56,37.91v-4.69c.85.71,1.77,1.25,2.77,1.6s2,.53,3.02.53c.6,0,1.12-.05,1.56-.16s.82-.26,1.11-.45.52-.42.67-.67.22-.54.22-.84c0-.41-.12-.78-.35-1.1s-.55-.62-.96-.89c-.41-.27-.89-.54-1.44-.79s-1.16-.51-1.8-.78c-1.64-.68-2.86-1.52-3.67-2.5-.81-.99-1.21-2.18-1.21-3.57,0-1.09.22-2.03.66-2.82s1.04-1.43,1.79-1.94,1.63-.88,2.63-1.12,2.05-.36,3.16-.36,2.06.07,2.91.2,1.62.33,2.34.61v4.38c-.35-.24-.74-.46-1.15-.64-.42-.19-.84-.34-1.28-.46s-.88-.21-1.31-.27-.85-.09-1.24-.09c-.54,0-1.03.05-1.46.15s-.81.25-1.11.43-.54.41-.7.67-.25.55-.25.87c0,.35.09.67.28.94s.45.54.79.79.76.49,1.25.73,1.04.49,1.66.74c.84.35,1.59.73,2.26,1.12s1.24.84,1.72,1.34.84,1.07,1.1,1.71.38,1.38.38,2.23c0,1.17-.22,2.16-.67,2.95-.45.8-1.05,1.44-1.81,1.93s-1.65.85-2.66,1.06c-1.01.21-2.08.32-3.2.32s-2.25-.1-3.29-.29c-1.04-.2-1.94-.49-2.7-.88h-.02Z"/>
          <path class="cls-1" d="M183.1,30.38c0,2.81-.65,4.97-1.96,6.46-1.3,1.49-3.19,2.24-5.66,2.24-1.1,0-2.12-.19-3.06-.57v-4.44c.81.62,1.72.92,2.72.92,2.16,0,3.24-1.6,3.24-4.8v-12.48h4.72s0,12.67,0,12.67Z"/>
          <path class="cls-1" d="M216.73,30.38c0,2.81-.65,4.97-1.96,6.46-1.3,1.49-3.19,2.24-5.66,2.24-1.1,0-2.12-.19-3.06-.57v-4.44c.81.62,1.72.92,2.72.92,2.16,0,3.24-1.6,3.24-4.8v-12.48h4.72s0,12.67,0,12.67Z"/>
          <path class="cls-1" d="M244.46,29.62c0,6.31-2.94,9.46-8.82,9.46s-8.55-3.08-8.55-9.24v-12.13h4.75v12.19c0,3.4,1.33,5.1,3.98,5.1s3.91-1.64,3.91-4.92v-12.36h4.73v11.91h0Z"/>
          <path class="cls-1" d="M273.92,38.72h-4.78l-8.66-13.2c-.51-.77-.86-1.35-1.05-1.74h-.06c.08.74.12,1.88.12,3.4v11.54h-4.47v-21.01h5.1l8.33,12.79c.38.58.73,1.15,1.05,1.71h.06c-.08-.49-.12-1.45-.12-2.89v-11.62h4.47v21.01h.01Z"/>
          <path class="cls-1" d="M301.97,37.31c-2.05,1.18-4.6,1.77-7.65,1.77-3.38,0-6.04-.94-7.99-2.81-1.95-1.87-2.92-4.45-2.92-7.73s1.06-5.99,3.19-8.07,4.96-3.12,8.5-3.12c2.23,0,4.19.31,5.89.92v4.44c-1.62-.94-3.6-1.41-5.95-1.41-1.96,0-3.56.64-4.8,1.91s-1.85,2.98-1.85,5.1.55,3.83,1.66,5.01,2.61,1.77,4.49,1.77c1.13,0,2.03-.16,2.7-.48v-4.1h-4.2v-3.78h8.94v10.58Z"/>
          <path class="cls-1" d="M311.09,37.91v-4.69c.85.71,1.77,1.25,2.77,1.6s2,.53,3.02.53c.6,0,1.12-.05,1.56-.16s.82-.26,1.11-.45.52-.42.67-.67.22-.54.22-.84c0-.41-.12-.78-.35-1.1s-.55-.62-.96-.89c-.41-.27-.89-.54-1.44-.79s-1.16-.51-1.8-.78c-1.64-.68-2.86-1.52-3.67-2.5-.81-.99-1.21-2.18-1.21-3.57,0-1.09.22-2.03.66-2.82s1.04-1.43,1.79-1.94,1.63-.88,2.63-1.12,2.05-.36,3.16-.36,2.06.07,2.91.2,1.62.33,2.34.61v4.38c-.35-.24-.74-.46-1.15-.64-.42-.19-.84-.34-1.28-.46s-.88-.21-1.31-.27-.85-.09-1.24-.09c-.54,0-1.03.05-1.46.15s-.81.25-1.11.43-.54.41-.7.67-.25.55-.25.87c0,.35.09.67.28.94s.45.54.79.79.76.49,1.25.73,1.04.49,1.66.74c.84.35,1.59.73,2.26,1.12s1.24.84,1.72,1.34.84,1.07,1.1,1.71.38,1.38.38,2.23c0,1.17-.22,2.16-.67,2.95-.45.8-1.05,1.44-1.81,1.93s-1.65.85-2.66,1.06c-1.01.21-2.08.32-3.2.32s-2.25-.1-3.29-.29c-1.04-.2-1.94-.49-2.7-.88h-.02Z"/>
          <path class="cls-1" d="M349.93,37.97c-1.53.74-3.54,1.11-6.01,1.11-3.22,0-5.76-.95-7.6-2.84s-2.77-4.42-2.77-7.57c0-3.36,1.04-6.08,3.11-8.17,2.07-2.09,4.77-3.13,8.08-3.13,2.05,0,3.78.26,5.19.78v4.56c-1.41-.84-3.01-1.26-4.8-1.26-1.97,0-3.56.62-4.78,1.86s-1.82,2.92-1.82,5.04.57,3.65,1.71,4.86,2.68,1.81,4.61,1.81,3.54-.45,5.07-1.35v4.32-.02Z"/>
          <path class="cls-1" d="M377.77,38.72h-4.75v-8.55h-8.7v8.55h-4.73v-21.01h4.73v8.38h8.7v-8.38h4.75v21.01Z"/>
          <path class="cls-1" d="M407.05,38.72h-5.16l-1.49-4.67h-7.47l-1.48,4.67h-5.13l7.65-21.01h5.61l7.47,21.01h0ZM399.32,30.41l-2.26-7.06c-.17-.53-.28-1.16-.35-1.89h-.12c-.05.62-.17,1.23-.37,1.83l-2.29,7.12h5.39Z"/>
          <path class="cls-1" d="M433.29,38.72h-5.43l-3.27-5.41c-.24-.41-.48-.78-.7-1.1s-.45-.6-.68-.83c-.23-.23-.47-.41-.72-.53s-.52-.18-.81-.18h-1.27v8.04h-4.73v-21.01h7.5c5.1,0,7.65,1.9,7.65,5.71,0,.73-.11,1.41-.34,2.03s-.54,1.18-.95,1.68-.91.93-1.49,1.29c-.58.36-1.23.64-1.94.85v.06c.31.1.62.26.91.48s.58.48.85.77.54.61.78.94c.25.34.48.67.68.99l3.97,6.21h-.01ZM420.4,21.25v5.84h2.05c1.02,0,1.83-.29,2.45-.88.62-.6.94-1.33.94-2.21,0-1.84-1.1-2.75-3.3-2.75h-2.14Z"/>
          <path class="cls-1" d="M104.32,70.72v-21.01h7.65c2.34,0,4.15.43,5.41,1.29s1.89,2.07,1.89,3.63c0,1.13-.38,2.12-1.15,2.97s-1.75,1.44-2.94,1.77v.06c1.49.19,2.69.74,3.58,1.66s1.34,2.04,1.34,3.35c0,1.92-.69,3.45-2.07,4.58s-3.26,1.69-5.64,1.69h-8.07ZM109.05,53.2v4.98h2.08c.98,0,1.75-.24,2.31-.71.56-.47.84-1.13.84-1.96,0-1.54-1.15-2.31-3.46-2.31h-1.77ZM109.05,61.69v5.54h2.56c1.09,0,1.95-.25,2.57-.76s.93-1.2.93-2.08-.31-1.5-.92-1.98-1.46-.72-2.56-.72h-2.59,0Z"/>
          <path class="cls-1" d="M148.03,70.72h-5.16l-1.49-4.67h-7.47l-1.48,4.67h-5.13l7.65-21.01h5.61l7.47,21.01ZM134.29,47.76c-.66,0-1.21-.19-1.63-.58s-.63-.86-.63-1.43.21-1.07.64-1.44.97-.56,1.61-.56,1.2.19,1.62.56.62.86.62,1.44-.21,1.08-.62,1.45-.95.56-1.62.56h.01ZM140.29,62.41l-2.26-7.06c-.17-.53-.28-1.16-.35-1.89h-.12c-.05.62-.17,1.23-.37,1.83l-2.29,7.12h5.39ZM141,47.76c-.65,0-1.19-.19-1.61-.57s-.63-.86-.63-1.44.21-1.08.63-1.45.96-.56,1.61-.56,1.19.19,1.62.56c.43.38.64.86.64,1.44s-.21,1.07-.63,1.44-.96.56-1.63.56v.02Z"/>
          <path class="cls-1" d="M174.27,70.72h-5.43l-3.27-5.41c-.24-.41-.48-.78-.7-1.1s-.45-.6-.68-.83c-.23-.23-.47-.41-.72-.53s-.52-.18-.81-.18h-1.27v8.04h-4.73v-21.01h7.5c5.1,0,7.65,1.9,7.65,5.71,0,.73-.11,1.41-.34,2.03s-.54,1.18-.95,1.68-.91.93-1.49,1.29-1.23.64-1.94.85v.06c.31.1.62.26.91.48s.58.48.85.77.54.61.78.94c.25.34.48.67.68.99l3.97,6.21h-.01ZM161.38,53.25v5.84h2.05c1.02,0,1.83-.29,2.45-.88.62-.6.94-1.33.94-2.21,0-1.84-1.1-2.75-3.3-2.75h-2.14Z"/>
          <path class="cls-1" d="M194.83,70.72h-12.6v-21.01h12.11v3.85h-7.38v4.67h6.87v3.84h-6.87v4.8h7.87v3.84h0Z"/>
          <path class="cls-1" d="M218.95,53.56h-5.99v17.15h-4.75v-17.15h-5.96v-3.85h16.7v3.85h0Z"/>
          <path class="cls-1" d="M226.81,69.91v-4.69c.85.71,1.77,1.25,2.77,1.6s2,.53,3.02.53c.6,0,1.12-.05,1.56-.16s.82-.26,1.11-.45.52-.42.67-.67.22-.54.22-.84c0-.41-.12-.78-.35-1.1s-.55-.62-.96-.89-.89-.54-1.44-.79-1.16-.51-1.8-.78c-1.64-.68-2.86-1.52-3.67-2.5-.81-.99-1.21-2.18-1.21-3.57,0-1.09.22-2.03.66-2.82s1.04-1.43,1.79-1.94,1.63-.88,2.63-1.12,2.05-.36,3.16-.36,2.06.07,2.91.2,1.62.33,2.34.61v4.38c-.35-.24-.74-.46-1.15-.64-.42-.19-.84-.34-1.28-.46s-.88-.21-1.31-.27-.85-.09-1.24-.09c-.54,0-1.03.05-1.46.15s-.81.25-1.11.43-.54.41-.7.67-.25.55-.25.87c0,.35.09.67.28.94s.45.54.79.79.76.49,1.25.73,1.04.49,1.66.74c.84.35,1.59.73,2.26,1.12s1.24.84,1.72,1.34.84,1.07,1.1,1.71.38,1.38.38,2.23c0,1.17-.22,2.16-.67,2.95-.45.8-1.05,1.44-1.81,1.93s-1.65.85-2.66,1.06c-1.01.21-2.08.32-3.2.32s-2.25-.1-3.29-.29c-1.04-.2-1.94-.49-2.7-.88h-.02Z"/>
          <path class="cls-1" d="M278.08,49.71l-5.55,21.01h-5.24l-3.49-13.48c-.19-.7-.3-1.49-.34-2.36h-.06c-.09.96-.21,1.74-.38,2.36l-3.57,13.48h-5.46l-5.52-21.01h5.17l2.96,13.99c.13.6.22,1.4.28,2.4h.09c.04-.75.18-1.57.42-2.46l3.81-13.93h5.07l3.44,14.11c.13.52.24,1.27.34,2.26h.06c.04-.77.14-1.55.31-2.34l2.9-14.02h4.78-.02Z"/>
          <path class="cls-1" d="M293.23,49.71v3.66h-1.76v13.68h1.76v3.66h-8.25v-3.66h1.76v-13.68h-1.76v-3.66s8.25,0,8.25,0Z"/>
          <path class="cls-1" d="M314.76,70.72h-12.51v-21.01h4.73v17.17h7.78v3.84Z"/>
        </g>
      </g>
    </g>
  </g>
</svg>