<?xml version="1.0" encoding="UTF-8"?>
<svg id="Ebene_2" data-name="Ebene 2" xmlns="http://www.w3.org/2000/svg" viewBox="0 0 68.49 68.49">
  <g id="Ebene_1-2" data-name="Ebene 1">
    <path d="M34.25,0L0,34.25l34.25,34.25,34.25-34.25L34.25,0ZM40.75,49.41c-2.76,1.13-5.01,3.24-6.51,5.83h0c-1.49-2.59-3.74-4.7-6.51-5.83-3.35-1.37-6.16-3.78-8.05-6.81-1.57-2.53-2.51-5.5-2.57-8.68l3.92,2.27c.18.92.46,1.81.82,2.66,1.35,3.15,3.86,5.68,6.99,7.06,1.12.49,2.31.83,3.56,1v-20.32h-9.55l3.15-3.67s0,0,0,0h6.4v-11.31c3.67,0,3.07-.05,3.67,0v11.31h6.4s0,0,.01,0l3.15,3.67h-9.56v20.32c1.25-.17,2.45-.51,3.56-1,3.13-1.37,5.65-3.91,6.99-7.06.36-.84.64-1.73.82-2.65h0s3.92-2.27,3.92-2.27c-.07,3.18-1,6.15-2.57,8.68-1.89,3.04-4.71,5.44-8.05,6.81Z"/>
  </g>
</svg>