<?xml version="1.0" encoding="UTF-8"?>
<svg id="Ebene_2" data-name="Ebene 2" xmlns="http://www.w3.org/2000/svg" viewBox="0 0 273.98 273.98">
  <defs>
    <style>
      .cls-1 {
        fill: #21366b;
      }

      .cls-2 {
        fill: #f7db38;
      }
    </style>
  </defs>
  <g id="Ebene_1-2" data-name="Ebene 1">
    <g>
      <rect class="cls-1" x="40.12" y="40.12" width="193.73" height="193.73" transform="translate(136.99 -56.74) rotate(45)"/>
      <g>
        <path class="cls-2" d="M20.81,145.21l-7.96-7.96,2.9-2.9c.89-.89,1.73-1.41,2.54-1.56s1.5.07,2.09.66c.43.43.66.95.69,1.56.03.61-.12,1.21-.44,1.79l.02.02c.64-.5,1.3-.74,1.99-.73.69,0,1.28.26,1.78.76.73.73,1.05,1.57.95,2.52-.09.95-.59,1.88-1.5,2.78l-3.06,3.06ZM15.96,136.77l1.89,1.89.79-.79c.37-.37.57-.75.61-1.14.03-.39-.11-.75-.42-1.06-.59-.59-1.31-.44-2.19.43l-.67.67ZM19.19,139.99l2.1,2.1.97-.97c.41-.41.64-.84.69-1.26.04-.43-.1-.81-.44-1.14s-.68-.45-1.1-.4c-.41.05-.83.28-1.24.7l-.98.98Z"/>
        <path class="cls-2" d="M35.15,130.86l-4.78,4.78-7.96-7.96,4.59-4.59,1.46,1.46-2.8,2.8,1.77,1.77,2.61-2.61,1.46,1.46-2.61,2.61,1.82,1.82,2.98-2.98,1.45,1.45Z"/>
        <path class="cls-2" d="M38.03,127.37l-1.78-1.78c.59-.05,1.14-.2,1.66-.44.51-.24.96-.56,1.35-.94.23-.23.4-.44.53-.65.13-.21.21-.41.25-.59.04-.19.04-.36,0-.51-.04-.15-.12-.29-.24-.4-.16-.16-.34-.25-.55-.28-.21-.03-.45-.03-.7.03-.26.05-.54.13-.85.25-.31.11-.63.24-.98.39-.88.36-1.66.51-2.34.44s-1.28-.37-1.81-.9c-.41-.41-.69-.85-.82-1.32s-.15-.94-.06-1.42.29-.95.57-1.42c.29-.47.64-.91,1.06-1.34s.81-.76,1.18-1.03.74-.49,1.12-.66l1.66,1.66c-.22.04-.45.11-.68.19-.23.09-.45.19-.66.31-.21.12-.41.25-.6.39-.19.14-.35.29-.5.44-.2.2-.37.41-.5.61-.13.21-.21.4-.26.59s-.05.36-.01.52c.04.16.11.3.24.42.13.13.29.22.46.25.18.03.38.03.6,0,.22-.03.47-.1.75-.19.28-.09.58-.21.91-.35.45-.18.88-.33,1.28-.43.4-.1.79-.15,1.16-.14.37,0,.73.08,1.06.23.34.15.67.38.99.7.44.44.73.9.87,1.37s.15.94.05,1.42c-.1.48-.3.95-.61,1.41-.3.46-.67.91-1.09,1.33s-.89.82-1.36,1.14c-.47.32-.92.55-1.36.69Z"/>
        <path class="cls-2" d="M47.52,112.18c1.07,1.07,1.64,2.13,1.71,3.19.07,1.06-.36,2.06-1.3,3-.42.42-.88.73-1.38.94l-1.68-1.68c.54-.07,1-.3,1.38-.68.82-.82.62-1.83-.59-3.05l-4.73-4.73,1.79-1.79,4.8,4.8Z"/>
        <path class="cls-2" d="M60.27,99.43c1.07,1.07,1.64,2.13,1.71,3.19.07,1.06-.36,2.06-1.3,3-.42.42-.88.73-1.38.94l-1.68-1.68c.54-.07,1-.3,1.38-.68.82-.82.62-1.84-.59-3.05l-4.73-4.73,1.79-1.79,4.8,4.8Z"/>
        <path class="cls-2" d="M70.49,88.63c2.39,2.39,2.47,4.7.24,6.93s-4.41,2.08-6.75-.26l-4.6-4.6,1.8-1.8,4.62,4.62c1.29,1.29,2.44,1.43,3.44.42.99-.99.86-2.1-.38-3.35l-4.69-4.69,1.79-1.79,4.51,4.51Z"/>
        <path class="cls-2" d="M85.11,80.91l-1.81,1.81-8.29-1.72c-.49-.1-.84-.19-1.06-.26l-.02.02c.31.25.76.67,1.33,1.24l4.38,4.38-1.69,1.69-7.96-7.96,1.93-1.93,8.01,1.69c.36.08.71.16,1.05.25l.02-.02c-.21-.16-.59-.5-1.14-1.05l-4.4-4.4,1.69-1.69,7.96,7.96Z"/>
        <path class="cls-2" d="M95.21,69.74c-.33,1.23-1.07,2.42-2.23,3.57-1.28,1.28-2.65,1.94-4.09,1.97-1.45.03-2.79-.58-4.04-1.82s-1.87-2.68-1.85-4.27c.02-1.6.7-3.06,2.04-4.4.84-.84,1.71-1.47,2.58-1.88l1.68,1.68c-.97.26-1.9.83-2.79,1.72-.74.74-1.11,1.59-1.09,2.54.02.95.43,1.83,1.23,2.64s1.66,1.24,2.53,1.27c.87.03,1.66-.32,2.37-1.03.43-.43.71-.83.84-1.21l-1.56-1.56-1.59,1.59-1.43-1.43,3.39-3.39,4,4Z"/>
        <path class="cls-2" d="M98.9,66.51l-1.78-1.78c.59-.05,1.15-.2,1.66-.44.51-.24.96-.56,1.35-.94.23-.23.4-.44.53-.65.13-.21.21-.41.25-.59.04-.18.04-.36,0-.51-.04-.15-.12-.29-.24-.4-.16-.16-.34-.25-.55-.28-.21-.03-.45-.02-.7.03-.26.05-.54.13-.85.25-.31.12-.63.24-.98.39-.88.36-1.66.51-2.34.44-.68-.07-1.28-.37-1.81-.9-.41-.41-.69-.85-.82-1.32s-.15-.94-.06-1.42c.09-.48.29-.95.57-1.42.29-.47.64-.91,1.06-1.34s.81-.76,1.18-1.03.74-.49,1.12-.66l1.66,1.66c-.23.04-.45.11-.68.19-.23.09-.45.19-.66.31-.21.12-.41.25-.6.39-.19.14-.35.29-.5.44-.2.2-.37.41-.5.61-.13.21-.21.4-.26.59-.04.19-.05.36-.01.52.04.16.11.3.24.42.13.13.29.22.46.25.18.04.38.04.6,0,.22-.04.48-.1.75-.19.28-.09.58-.21.91-.35.45-.18.88-.33,1.28-.43.4-.1.79-.15,1.16-.14.37,0,.73.08,1.06.23.34.15.67.38.99.7.44.44.73.9.87,1.37.13.47.15.94.05,1.42-.1.48-.3.95-.6,1.41-.3.46-.67.91-1.09,1.34s-.89.82-1.36,1.14-.92.55-1.36.69Z"/>
        <path class="cls-2" d="M113.65,51.81c-.3.86-.92,1.76-1.85,2.7-1.22,1.22-2.54,1.82-3.96,1.81-1.42-.02-2.72-.63-3.92-1.82-1.27-1.27-1.91-2.7-1.92-4.28,0-1.58.62-3,1.87-4.25.78-.78,1.53-1.33,2.26-1.67l1.73,1.73c-.85.21-1.62.66-2.3,1.34-.75.75-1.12,1.59-1.11,2.52.01.93.42,1.8,1.22,2.6s1.6,1.17,2.49,1.19c.89.02,1.7-.33,2.44-1.06s1.17-1.51,1.41-2.43l1.64,1.64Z"/>
        <path class="cls-2" d="M124.48,41.53l-1.8,1.8-3.24-3.24-3.3,3.3,3.24,3.24-1.79,1.79-7.96-7.96,1.79-1.79,3.18,3.18,3.3-3.3-3.18-3.18,1.8-1.8,7.96,7.96Z"/>
        <path class="cls-2" d="M135.58,30.43l-1.95,1.95-2.34-1.21-2.83,2.83,1.21,2.33-1.94,1.94-5.06-10.86,2.13-2.13,10.8,5.13ZM129.5,30.22l-3.53-1.82c-.26-.14-.55-.33-.85-.58l-.04.04c.21.25.4.53.56.83l1.83,3.56,2.04-2.04Z"/>
        <path class="cls-2" d="M145.53,20.48l-2.06,2.06-3.29-.81c-.25-.06-.48-.11-.68-.15-.21-.04-.4-.06-.57-.06-.17,0-.33.02-.47.07-.14.05-.27.13-.38.24l-.48.48,3.05,3.05-1.79,1.79-7.96-7.96,2.84-2.84c1.93-1.93,3.62-2.18,5.07-.73.28.28.49.58.64.9.15.32.24.65.28,1,.03.34,0,.69-.07,1.05-.08.36-.22.71-.41,1.06l.02.02c.16-.08.33-.14.52-.16s.4-.04.61-.03c.21,0,.43.03.66.06s.43.07.63.12l3.86.85ZM134.03,18.75l2.22,2.22.78-.78c.39-.39.58-.81.59-1.26.01-.46-.15-.86-.48-1.19-.7-.7-1.46-.63-2.29.21l-.81.81Z"/>
      </g>
      <path class="cls-2" d="M211.49,154.28c-.29,13.84-4.34,26.75-11.19,37.75-8.13,13.06-20.18,23.42-34.51,29.42-11.87,4.98-21.88,13.56-28.31,24.71l-.49.84-.49-.84c-6.43-11.15-16.44-19.74-28.31-24.71-14.33-6.01-26.39-16.37-34.51-29.42-6.85-11-10.91-23.91-11.19-37.75l17.06,9.85,7.68,4.43-2.41,4.18c-1.09,1.89-1.18,4.21-.21,6.16,6.11,12.2,16.36,21.96,28.91,27.46.05.02.1.04.15.06,7.24,3.15,15.34-2.23,15.34-10.14v-73.93h-41.78v-.53c3.37-5.42,7.6-10.25,12.5-14.3.9-.74,2.04-1.15,3.21-1.15h26.07v-47.54c0-.93.72-1.69,1.65-1.75,2.09-.14,4.21-.21,6.34-.21s4.24.07,6.34.21c.92.06,1.65.82,1.65,1.75v47.54h26.07c1.17,0,2.31.4,3.21,1.15,4.9,4.04,9.13,8.87,12.5,14.3v.53h-41.78v73.93c0,7.9,8.09,13.29,15.34,10.14.05-.02.1-.04.15-.06,12.54-5.5,22.79-15.26,28.91-27.46.98-1.95.88-4.27-.21-6.16l-2.41-4.18,7.68-4.43,17.06-9.85Z"/>
      <g>
        <path class="cls-2" d="M139.66,34.14l9.9-9.9,3.61,3.61c1.1,1.1,1.75,2.16,1.94,3.15.19,1-.08,1.87-.82,2.6-.53.53-1.18.82-1.94.86-.76.04-1.5-.14-2.22-.55l-.03.03c.62.79.92,1.61.91,2.47s-.33,1.59-.95,2.21c-.91.91-1.95,1.3-3.13,1.18-1.18-.12-2.33-.74-3.46-1.86l-3.8-3.8ZM146.14,32.12l-2.61,2.61,1.21,1.21c.52.52,1.04.8,1.57.85s1-.13,1.42-.54.56-.85.5-1.36c-.06-.51-.35-1.03-.87-1.54l-1.22-1.22ZM150.15,28.12l-2.35,2.35.98.98c.46.46.93.71,1.42.75s.93-.13,1.32-.53c.73-.73.55-1.63-.54-2.72l-.83-.83Z"/>
        <path class="cls-2" d="M161.69,56.18l-2.43-2.43,1.5-2.91-3.52-3.52-2.9,1.5-2.42-2.42,13.51-6.3,2.64,2.64-6.38,13.42ZM161.96,48.61l2.27-4.39c.17-.33.41-.68.72-1.06l-.06-.06c-.31.27-.66.5-1.04.69l-4.43,2.28,2.53,2.53ZM166.03,38.88c-.31-.31-.48-.66-.49-1.04-.02-.38.11-.7.38-.97.28-.28.6-.4.98-.38.38.03.72.19,1.03.49s.48.66.5,1.03c.02.37-.11.7-.39.97s-.61.41-.98.39c-.37-.02-.71-.19-1.03-.5ZM169.2,42.04c-.31-.31-.47-.65-.49-1.03-.02-.38.11-.7.38-.97s.61-.41.98-.39c.37.02.71.19,1.02.5s.47.65.5,1.03c.02.38-.1.71-.38.98s-.6.4-.98.38-.72-.19-1.03-.5Z"/>
        <path class="cls-2" d="M175.49,69.98l-2.56-2.56,1.01-4.09c.08-.31.14-.59.19-.85.05-.26.07-.49.07-.71s-.03-.41-.09-.59c-.06-.17-.16-.33-.3-.47l-.6-.6-3.79,3.79-2.23-2.23,9.9-9.9,3.54,3.54c2.4,2.4,2.71,4.5.91,6.3-.34.35-.72.61-1.12.8-.4.19-.81.3-1.24.34-.43.04-.87.01-1.31-.09-.44-.1-.88-.28-1.32-.52l-.03.03c.1.19.17.41.2.65s.05.5.04.76c0,.27-.04.54-.08.82s-.09.54-.14.79l-1.06,4.8ZM177.65,55.67l-2.76,2.76.97.97c.48.48,1,.72,1.57.74.58.01,1.07-.19,1.48-.6.87-.87.78-1.82-.26-2.85l-1.01-1.01Z"/>
        <path class="cls-2" d="M186.61,81.1l-5.94-5.94,9.9-9.9,5.71,5.71-1.82,1.82-3.48-3.48-2.2,2.2,3.24,3.24-1.81,1.81-3.24-3.24-2.27,2.26,3.71,3.71-1.81,1.81Z"/>
        <path class="cls-2" d="M207.5,85.81l-2.82-2.82-8.09,8.09-2.24-2.24,8.09-8.09-2.81-2.81,1.82-1.82,7.87,7.87-1.82,1.82Z"/>
        <path class="cls-2" d="M204.92,98.65l2.21-2.21c.06.74.25,1.42.55,2.06.3.64.69,1.2,1.17,1.67.28.28.55.5.81.66.26.16.5.26.74.31s.44.05.63,0c.19-.05.36-.15.5-.29.19-.19.31-.42.35-.68.04-.26.03-.55-.03-.87s-.16-.67-.31-1.05-.3-.79-.48-1.21c-.45-1.1-.63-2.07-.55-2.91.09-.84.46-1.6,1.12-2.25.52-.52,1.06-.86,1.64-1.02s1.16-.19,1.76-.07,1.19.35,1.77.71c.58.36,1.13.8,1.66,1.32s.94,1,1.28,1.46.61.92.81,1.39l-2.06,2.07c-.05-.28-.13-.56-.24-.85-.11-.28-.24-.56-.39-.82-.15-.27-.31-.51-.49-.75s-.36-.44-.54-.62c-.25-.25-.51-.46-.76-.62s-.5-.27-.73-.32-.45-.06-.65-.02c-.2.04-.38.14-.53.29-.17.17-.27.36-.31.58-.04.22-.04.47,0,.75.04.28.12.59.24.93.12.34.26.72.43,1.13.23.56.41,1.09.54,1.59s.19.98.18,1.44c0,.46-.1.9-.29,1.32-.18.42-.47.83-.87,1.23-.55.55-1.12.91-1.71,1.08-.58.17-1.17.19-1.76.06-.59-.13-1.18-.38-1.75-.75-.58-.38-1.13-.83-1.66-1.36-.54-.54-1.01-1.11-1.41-1.69-.4-.58-.68-1.14-.86-1.69Z"/>
        <path class="cls-2" d="M240.04,114.72l-12.52,7.29-2.47-2.47,4.71-8c.24-.42.56-.84.95-1.27l-.03-.03c-.49.41-.92.72-1.29.93l-8.04,4.67-2.58-2.58,7.3-12.5,2.44,2.44-5.2,7.99c-.22.34-.55.76-1,1.26l.04.04c.37-.34.83-.66,1.36-.96l8.36-4.77,2.39,2.39-5.03,8.27c-.18.3-.49.71-.9,1.22l.03.03c.38-.34.8-.67,1.25-.96l7.98-5.24,2.25,2.25Z"/>
        <path class="cls-2" d="M248.61,123.29l-1.73,1.73-.83-.83-6.45,6.45.83.83-1.73,1.73-3.89-3.89,1.73-1.73.83.83,6.45-6.45-.83-.83,1.73-1.73,3.89,3.89Z"/>
        <path class="cls-2" d="M250.29,144.77l-5.9-5.9,9.9-9.9,2.23,2.23-8.09,8.09,3.67,3.67-1.81,1.81Z"/>
      </g>
    </g>
  </g>
</svg>